inDegrees=yes
name=ik_S41_A05_T03
DataType=double
version=3
OpenSimVersion=4.3-2021-08-27-4bc7ad9
endheader
time	pelvis_tilt	pelvis_list	pelvis_rotation	pelvis_tx	pelvis_ty	pelvis_tz	hip_flexion_r	hip_adduction_r	hip_rotation_r	knee_angle_r	knee_angle_r_beta	ankle_angle_r	subtalar_angle_r	mtp_angle_r	hip_flexion_l	hip_adduction_l	hip_rotation_l	knee_angle_l	knee_angle_l_beta	ankle_angle_l	subtalar_angle_l	mtp_angle_l	lumbar_extension	lumbar_bending	lumbar_rotation	arm_flex_r	arm_add_r	arm_rot_r	elbow_flex_r	pro_sup_r	wrist_flex_r	wrist_dev_r	arm_flex_l	arm_add_l	arm_rot_l	elbow_flex_l	pro_sup_l	wrist_flex_l	wrist_dev_l
13.5999999999998	-7.29722696307495	-6.710881794274824	35.58860201719371	0	0.9399999999999999	0	38.7395305896665	-9.917360550530912	-9.689612731814472	45.69232775971571	0.7974815623074436	0	0	0	38.7395305896665	-9.917360550530912	-9.689612731814472	45.69232775971571	0.7974815623074436	0	0	0	-8.820072690524455	-3.347357402883551	6.902515447594201	30.14938788141939	-5.346746911685043	-24.9170249827562	22.08696217875879	47.40837364019133	0	0	29.33665298249208	3.337627674701011	9.446923232598179	16.64824639088625	81.33851913438394	0	0
13.6199999999998	-7.286451132546874	-6.692506463952126	35.95930833101878	0	0.9399999999999999	0	38.77943406108704	-9.918615673504689	-9.69309649225946	45.74489639943704	0.7983990581538755	0	0	0	38.77943406108704	-9.918615673504689	-9.69309649225946	45.74489639943704	0.7983990581538755	0	0	0	-8.839241267687351	-3.249056266462316	6.540467230476422	28.38556140227266	-4.082463393447349	-22.0084711917897	21.96293263384332	47.69234521382454	0	0	29.30682752231899	3.361171139049506	9.323734432349879	16.65785947866675	81.35307591000442	0	0
13.6399999999998	-7.331296292608784	-6.679913291209298	36.69371246465174	0	0.9399999999999999	0	38.8557679455247	-9.920980312014978	-9.699702853697385	45.84597103524041	0.8001631433388984	0	0	0	38.8557679455247	-9.920980312014978	-9.699702853697385	45.84597103524041	0.8001631433388984	0	0	0	-8.939180514686447	-3.044393461269277	5.866105808513256	27.12397322062043	-2.177074574555736	-18.73127860468351	17.24121775576863	56.83317663651297	0	0	29.38588902023625	3.487233393049738	9.23968395493791	16.66534402687344	81.44041306772627	0	0
13.6599999999998	-7.32739845394009	-6.639827631137573	36.91125535176786	0	0.9399999999999999	0	38.89817444129736	-9.922278242971737	-9.703350237103274	45.90196646488641	0.8011404479522899	0	0	0	38.89817444129736	-9.922278242971737	-9.703350237103274	45.90196646488641	0.8011404479522899	0	0	0	-8.943091006318976	-2.940339287255061	5.572556740387711	25.76347671253003	-1.090027474263028	-16.70188941699323	17.82434195559145	56.80090710521709	0	0	29.31331433712748	3.497656096444882	9.120979134993986	16.67071084487387	81.45306850561434	0	0
13.6799999999998	-7.327207351127777	-6.617879566232517	37.12174965727395	0	0.9399999999999999	0	38.9012758186056	-9.922414743751254	-9.703684941508051	45.90511476699847	0.8011953961899928	0	0	0	38.9012758186056	-9.922414743751254	-9.703684941508051	45.90511476699847	0.8011953961899928	0	0	0	-8.955852543332739	-2.858913165049441	5.305086488663763	25.78660005768499	-0.5544059960559793	-16.4654781204101	16.77869175966806	59.88180014409546	0	0	29.30123230802625	3.531031891778021	9.040245027474873	16.62050793353057	81.52441677410665	0	0
13.6999999999998	-7.332134859083807	-6.574954672541698	37.09610667917033	0	0.9399999999999999	0	38.90334940091979	-9.922505707592089	-9.703908268779067	45.90722482713441	0.80123222368678	0	0	0	38.90334940091979	-9.922505707592089	-9.703908268779067	45.90722482713441	0.80123222368678	0	0	0	-8.942271240713614	-2.799466631085823	5.215230727876087	24.51575756580885	-0.2575344210952899	-15.96396400777006	17.941354201224	59.5903463407458	0	0	29.22224671994127	3.565185914010611	9.047407693397325	16.56331426608184	81.53615415387618	0	0
13.7199999999998	-7.337097321011468	-6.581386853133528	37.55461346135929	0	0.9399999999999999	0	38.90714882409264	-9.922673056722896	-9.704318660035241	45.91107212221613	0.8012993716532519	0	0	0	38.90714882409264	-9.922673056722896	-9.704318660035241	45.91107212221613	0.8012993716532519	0	0	0	-8.992758250613999	-2.690591152513032	4.741122919156145	23.58259539242057	0.6421909327403356	-15.4666645634744	17.60151778591094	66.08982668855171	0	0	29.25774854264691	3.588019185182768	9.008247517281134	16.58784742984683	81.55668851961758	0	0
13.7399999999998	-7.325623147858315	-6.578322923227908	37.70504808689511	0	0.9399999999999999	0	38.91036543827349	-9.922814677898106	-9.704666081635796	45.91432706800578	0.8013561811742553	0	0	0	38.91036543827349	-9.922814677898106	-9.704666081635796	45.91432706800578	0.8013561811742553	0	0	0	-8.995491937100805	-2.659048830732552	4.587171109405883	22.74636836108056	1.047199691193035	-14.4389847227054	18.52387769369721	66.27153247581171	0	0	29.11641333529371	3.577555502262093	9.38117703019264	16.65313262858296	81.37416549958402	0	0
13.7599999999998	-7.299525193135711	-6.565269562342919	37.99336434556225	0	0.9399999999999999	0	38.95975155696723	-9.924306689681421	-9.708885212809845	45.97955053332169	0.8024945453935781	0	0	0	38.95975155696723	-9.924306689681421	-9.708885212809845	45.97955053332169	0.8024945453935781	0	0	0	-8.996971335342181	-2.588997531033009	4.283374636533671	22.02785092071031	1.589533142065386	-12.92901164502641	18.5294162962997	69.74595825794563	0	0	29.03539917941771	3.539716775065998	9.474126034482037	16.69377870568344	81.28901270093499	0	0
